<svg width="512" height="512" viewBox="0 0 512 512" fill="none" xmlns="http://www.w3.org/2000/svg">
  <!-- Background with gradient -->
  <defs>
    <linearGradient id="bgGradient" x1="0%" y1="0%" x2="100%" y2="100%">
      <stop offset="0%" style="stop-color:#22c55e;stop-opacity:1" />
      <stop offset="100%" style="stop-color:#16a34a;stop-opacity:1" />
    </linearGradient>
  </defs>
  <rect width="512" height="512" rx="80" fill="url(#bgGradient)"/>
  
  <!-- Main Padel Racket -->
  <g transform="translate(256, 180)">
    <!-- Racket handle -->
    <rect x="-10" y="60" width="20" height="90" rx="10" fill="white"/>
    
    <!-- Racket head shadow -->
    <ellipse cx="0" cy="0" rx="85" ry="60" fill="white" opacity="0.2" transform="translate(0, 8)"/>
    
    <!-- Racket head -->
    <ellipse cx="0" cy="0" rx="85" ry="60" fill="white"/>
    <ellipse cx="0" cy="0" rx="75" ry="50" fill="none" stroke="#22c55e" stroke-width="3"/>
    
    <!-- Strings - horizontal -->
    <line x1="-75" y1="0" x2="75" y2="0" stroke="#22c55e" stroke-width="2.5"/>
    <line x1="-75" y1="-15" x2="75" y2="-15" stroke="#22c55e" stroke-width="2"/>
    <line x1="-75" y1="15" x2="75" y2="15" stroke="#22c55e" stroke-width="2"/>
    
    <!-- Strings - vertical -->
    <line x1="-60" y1="-50" x2="-60" y2="50" stroke="#22c55e" stroke-width="2"/>
    <line x1="-30" y1="-50" x2="-30" y2="50" stroke="#22c55e" stroke-width="2"/>
    <line x1="0" y1="-50" x2="0" y2="50" stroke="#22c55e" stroke-width="2"/>
    <line x1="30" y1="-50" x2="30" y2="50" stroke="#22c55e" stroke-width="2"/>
    <line x1="60" y1="-50" x2="60" y2="50" stroke="#22c55e" stroke-width="2"/>
    
    <!-- Strings - diagonal -->
    <line x1="-45" y1="-50" x2="-45" y2="50" stroke="#22c55e" stroke-width="1.5" opacity="0.6"/>
    <line x1="45" y1="-50" x2="45" y2="50" stroke="#22c55e" stroke-width="1.5" opacity="0.6"/>
  </g>
  
  <!-- Decorative racket (smaller, rotated) -->
  <g transform="translate(380, 120) rotate(25)">
    <ellipse cx="0" cy="0" rx="35" ry="25" fill="white" opacity="0.15"/>
  </g>
  
  <!-- Brand Text -->
  <text x="256" y="400" font-family="-apple-system, BlinkMacSystemFont, 'SF Pro Display', 'Helvetica Neue', Arial, sans-serif" font-size="72" font-weight="700" fill="white" text-anchor="middle" letter-spacing="-1">Vibo</text>
  
  <!-- Accent dot -->
  <circle cx="256" cy="430" r="4" fill="white" opacity="0.8"/>
</svg>
